<?xml version="1.0" standalone="no"?>
<!DOCTYPE svg PUBLIC "-//W3C//DTD SVG 20010904//EN"
 "http://www.w3.org/TR/2001/REC-SVG-20010904/DTD/svg10.dtd">
<svg version="1.0" xmlns="http://www.w3.org/2000/svg"
 width="256.000000pt" height="256.000000pt" viewBox="0 0 256.000000 256.000000"
 preserveAspectRatio="xMidYMid meet">

<g transform="translate(0.000000,256.000000) scale(0.100000,-0.100000)"
fill="#000000" stroke="none">
<path d="M1180 2549 c-507 -35 -950 -386 -1113 -884 -72 -218 -77 -516 -12
-732 l16 -53 184 0 185 0 0 540 c0 297 3 540 8 540 4 0 192 -184 417 -410 225
-225 412 -410 415 -410 3 0 190 185 415 410 225 226 413 410 417 410 5 0 8
-243 8 -540 l0 -540 185 0 184 0 16 53 c55 182 60 466 12 649 -63 240 -170
429 -338 597 -265 265 -618 396 -999 370z"/>
<path d="M730 947 l0 -337 -265 0 c-146 0 -265 -3 -265 -6 0 -14 96 -140 153
-201 533 -570 1474 -518 1943 106 35 48 64 89 64 93 0 5 -119 8 -265 8 l-265
0 0 337 0 338 -275 -275 -275 -275 -275 275 -275 275 0 -338z"/>
</g>
</svg>
